<svg width="16" height="16" viewBox="0 0 16 16" fill="none" xmlns="http://www.w3.org/2000/svg">
<path d="M8 0C7.9141 0 7.83074 0.0101052 7.74568 0.0126315C7.68674 0.0016841 7.62863 0.00757897 7.56968 0.0218948C3.35916 0.247579 0 3.7339 0 8C0 12.4109 3.58905 16 8 16C8.33937 16 8.67116 15.9722 8.99958 15.9309C9.00295 15.9309 9.00632 15.9335 9.01053 15.9335C9.02063 15.9335 9.03074 15.9259 9.04084 15.9251C11.3196 15.6269 13.2977 14.3714 14.5566 12.5718C14.5844 12.5432 14.608 12.5128 14.6274 12.4775C15.4939 11.1992 16.0008 9.65811 16.0008 8.00084C16 3.58905 12.4109 0 8 0ZM9.904 13.4813C9.81053 13.7903 9.23284 14.576 8.7941 15.1124C8.53305 15.1411 8.26863 15.1587 8 15.1587C4.05305 15.1579 0.842105 11.9469 0.842105 8C0.842105 5.83242 1.81389 3.89053 3.34147 2.57684C3.50821 2.64084 3.69516 2.6619 3.83158 2.67621C3.89474 2.68211 3.98653 2.69221 4.05221 2.70316C4.08421 2.87495 4.02947 3.26232 3.99916 3.48379C3.94779 3.84926 3.89979 4.19368 3.96547 4.47242C4.06905 4.912 4.46147 5.61937 4.69221 5.94021C5.04421 6.42863 5.72126 6.92295 6.43789 7.44505C7.33474 8.09937 8.43874 8.90526 8.55747 9.53937C8.51789 9.56716 8.46905 9.59916 8.43116 9.62358C8.21053 9.76589 7.90905 9.96126 7.90905 10.3074C7.90905 10.9128 8.52632 11.3448 9.12253 11.7634C9.42737 11.9773 9.84505 12.2703 9.91831 12.4455C9.99242 12.6248 9.984 13.2152 9.904 13.4813ZM14.8269 10.1507C14.7949 9.84758 14.7293 9.57811 14.6029 9.40211C14.3276 9.01979 13.7592 8.91453 13.2093 8.81263C12.9491 8.76463 12.6248 8.70484 12.5086 8.63242C12.4699 8.60463 12.3789 8.49263 12.3183 8.41937C12.1625 8.22821 12.0025 8.03116 11.7861 7.94105C11.5074 7.82568 11.0636 7.85347 10.5853 7.91242C10.2299 7.95621 9.83916 7.95368 9.80968 7.94105C9.20084 7.68842 8.39495 7.07032 8.14063 6.70653C8.17937 6.71495 8.2181 6.72337 8.256 6.73095C8.60632 6.80674 8.97516 6.85642 9.21095 6.71158C9.71284 6.40168 9.9781 5.65558 10.2349 4.9339C10.3714 4.55074 10.512 4.15411 10.6425 3.97221C10.6686 3.94358 10.7655 3.87537 10.8295 3.8299C11.0905 3.64632 11.4476 3.39453 11.3827 2.99032C11.3036 2.50358 10.7731 2.34442 10.3057 2.20379C10.1651 2.16168 9.952 2.09768 9.90063 2.06147C9.87116 2.03537 9.80042 1.93937 9.7541 1.87537C9.57305 1.62779 9.34821 1.31874 8.99031 1.31874C8.64505 1.31874 8.44968 1.62021 8.30737 1.84C8.2981 1.85432 8.288 1.87032 8.27705 1.88632C8.19116 1.79453 8.09684 1.664 8.06147 1.57811C8.01347 1.46274 8.04884 1.05263 8.06653 0.845474C11.9815 0.880842 15.1579 4.07495 15.1579 8C15.1579 8.74948 15.0408 9.47116 14.8269 10.1507Z" fill="#64626A"/>
</svg>
