<svg width="16" height="16" viewBox="0 0 16 16" fill="none" xmlns="http://www.w3.org/2000/svg">
<path d="M7.99992 2.33337C4.87525 2.33337 2.33325 4.87537 2.33325 8.00004C2.33325 11.1247 4.87525 13.6667 7.99992 13.6667C11.1246 13.6667 13.6666 11.1247 13.6666 8.00004C13.6666 4.87537 11.1246 2.33337 7.99992 2.33337ZM10.2359 6.23604L8.23592 8.23604C8.17192 8.29937 8.08659 8.33337 7.99992 8.33337C7.95725 8.33337 7.91392 8.32537 7.87259 8.30804C7.74792 8.25671 7.66659 8.13471 7.66659 8.00004V4.00004C7.66659 3.81604 7.81592 3.66671 7.99992 3.66671C8.18392 3.66671 8.33325 3.81604 8.33325 4.00004V7.19537L9.76392 5.76471C9.89392 5.63471 10.1053 5.63471 10.2353 5.76471C10.3653 5.89471 10.3659 6.10537 10.2359 6.23604Z" fill="#64626A"/>
<path d="M7.99992 0.333374C3.77259 0.333374 0.333252 3.77271 0.333252 8.00004C0.333252 12.2274 3.77259 15.6667 7.99992 15.6667C12.2273 15.6667 15.6666 12.2274 15.6666 8.00004C15.6666 3.77271 12.2273 0.333374 7.99992 0.333374ZM7.99992 14.3334C4.50792 14.3334 1.66659 11.492 1.66659 8.00004C1.66659 4.50804 4.50792 1.66671 7.99992 1.66671C11.4919 1.66671 14.3333 4.50804 14.3333 8.00004C14.3333 11.492 11.4919 14.3334 7.99992 14.3334Z" fill="#64626A"/>
</svg>
