<svg width="12" height="16" viewBox="0 0 12 16" fill="none" xmlns="http://www.w3.org/2000/svg">
<path d="M5.66667 0C2.542 0 0 2.542 0 5.66667C0 11.1453 5.226 15.7267 5.44867 15.9187C5.51133 15.9727 5.58933 16 5.66667 16C5.744 16 5.822 15.9727 5.88467 15.9187C6.10733 15.726 11.3333 11.1447 11.3333 5.66667C11.3333 2.542 8.79133 0 5.66667 0ZM5.66667 8.66667C4.01 8.66667 2.66667 7.32333 2.66667 5.66667C2.66667 4.01 4.01 2.66667 5.66667 2.66667C7.32333 2.66667 8.66667 4.01 8.66667 5.66667C8.66667 7.32333 7.32333 8.66667 5.66667 8.66667Z" fill="#64626A"/>
</svg>
