<svg width="54" height="48" viewBox="0 0 54 48" fill="none" xmlns="http://www.w3.org/2000/svg">
<circle cx="24" cy="24" r="23.5" stroke="#F4F6F8"/>
<path fill-rule="evenodd" clip-rule="evenodd" d="M15.8245 18.0263L15.6421 16.5296C15.5764 15.8951 15.0355 15.4127 14.39 15.4127H13.7155C13.2983 15.4127 12.96 15.0785 12.96 14.6663C12.96 14.2541 13.2983 13.9199 13.7155 13.9199H14.39C15.8105 13.9199 17.0007 14.9816 17.1453 16.3777L17.283 17.707H32.6163C32.9333 17.707 33.1714 17.9928 33.1104 18.3002L31.7709 25.049C31.4466 26.6828 29.9971 27.8613 28.3119 27.8613H20.2834C20.5149 28.8706 21.428 29.6023 22.493 29.6023H28.8165C28.8538 29.6023 28.8908 29.605 28.8722 29.6083C28.9276 29.6043 28.9833 29.6023 29.0392 29.6023C30.2908 29.6023 31.3054 30.6047 31.3054 31.8411C31.3054 33.0776 30.2908 34.0799 29.0392 34.0799C27.7876 34.0799 26.773 33.0776 26.773 31.8411C26.773 31.5835 26.8172 31.3319 26.9019 31.095H24.1267C24.2115 31.3319 24.2557 31.5835 24.2557 31.8411C24.2557 33.0776 23.2411 34.0799 21.9895 34.0799C20.7379 34.0799 19.7233 33.0776 19.7233 31.8411C19.7233 31.2958 19.9219 30.7819 20.2711 30.3814C19.4122 29.7635 18.8457 28.8104 18.7358 27.7467L18.7242 27.6344C17.4946 27.1719 16.5871 26.0477 16.4662 24.6823L16.1617 21.2429C16.1566 21.2217 16.1528 21.1998 16.1505 21.1775L15.8245 18.0263ZM21.9895 32.8361C22.5457 32.8361 22.9966 32.3906 22.9966 31.8411C22.9966 31.2916 22.5457 30.8462 21.9895 30.8462C21.4333 30.8462 20.9824 31.2916 20.9824 31.8411C20.9824 32.3906 21.4333 32.8361 21.9895 32.8361ZM29.0392 32.8361C29.5954 32.8361 30.0463 32.3906 30.0463 31.8411C30.0463 31.2916 29.5954 30.8462 29.0392 30.8462C28.483 30.8462 28.0321 31.2916 28.0321 31.8411C28.0321 32.3906 28.483 32.8361 29.0392 32.8361Z" fill="#919EAB"/>
<rect x="35" width="19" height="19" rx="9.5" fill="#DE3618"/>
<path d="M43.375 9.08398H44.2422C44.6797 9.08008 45.0254 8.9668 45.2793 8.74414C45.5371 8.52148 45.666 8.19922 45.666 7.77734C45.666 7.37109 45.5586 7.05664 45.3438 6.83398C45.1328 6.60742 44.8086 6.49414 44.3711 6.49414C43.9883 6.49414 43.6738 6.60547 43.4277 6.82812C43.1816 7.04688 43.0586 7.33398 43.0586 7.68945H41.6348C41.6348 7.25195 41.75 6.85352 41.9805 6.49414C42.2148 6.13477 42.5391 5.85547 42.9531 5.65625C43.3711 5.45312 43.8379 5.35156 44.3535 5.35156C45.2051 5.35156 45.873 5.56641 46.3574 5.99609C46.8457 6.42188 47.0898 7.01562 47.0898 7.77734C47.0898 8.16016 46.9668 8.52148 46.7207 8.86133C46.4785 9.19727 46.1641 9.45117 45.7773 9.62305C46.2461 9.7832 46.6016 10.0352 46.8438 10.3789C47.0898 10.7227 47.2129 11.1328 47.2129 11.6094C47.2129 12.375 46.9492 12.9844 46.4219 13.4375C45.8984 13.8906 45.209 14.1172 44.3535 14.1172C43.5332 14.1172 42.8613 13.8984 42.3379 13.4609C41.8145 13.0234 41.5527 12.4414 41.5527 11.7148H42.9766C42.9766 12.0898 43.1016 12.3945 43.3516 12.6289C43.6055 12.8633 43.9453 12.9805 44.3711 12.9805C44.8125 12.9805 45.1602 12.8633 45.4141 12.6289C45.668 12.3945 45.7949 12.0547 45.7949 11.6094C45.7949 11.1602 45.6621 10.8145 45.3965 10.5723C45.1309 10.3301 44.7363 10.209 44.2129 10.209H43.375V9.08398Z" fill="white"/>
</svg>
