<?xml version="1.0" encoding="utf-8"?>
<!-- Generator: Adobe Illustrator 25.1.0, SVG Export Plug-In . SVG Version: 6.00 Build 0)  -->
<svg version="1.1" id="Camada_1" xmlns="http://www.w3.org/2000/svg" xmlns:xlink="http://www.w3.org/1999/xlink" x="0px" y="0px"
	 viewBox="0 0 288 130" style="enable-background:new 0 0 288 130;" xml:space="preserve">
<style type="text/css">
	.st0{fill-rule:evenodd;clip-rule:evenodd;fill:#213C4D;}
	.st1{fill-rule:evenodd;clip-rule:evenodd;fill:#AC3E51;}
</style>
<path class="st0" d="M264.9,73c1.2,1.2,2.8,1.9,4.7,1.9c1.9,0,3.5-0.6,4.8-1.9s1.9-2.9,1.9-4.9s-0.6-3.6-1.9-4.9s-2.8-1.9-4.8-1.9
	c-1.9,0-3.5,0.6-4.7,1.9s-1.9,2.9-1.9,4.9C263.1,70.1,263.7,71.7,264.9,73 M276.3,56.1h6.2v24h-6.2v-2.8c-1.9,2.3-4.5,3.5-7.8,3.5
	c-3.2,0-5.9-1.2-8.2-3.7c-2.3-2.4-3.4-5.4-3.4-9s1.1-6.5,3.4-9c2.3-2.4,5-3.7,8.2-3.7c3.4,0,6,1.2,7.8,3.5V56.1L276.3,56.1z
	 M235.6,65.8h12.2c-0.4-1.6-1.1-2.8-2.2-3.6c-1.1-0.8-2.4-1.2-3.8-1.2c-1.7,0-3,0.4-4.1,1.3C236.7,63.1,236,64.3,235.6,65.8
	 M235.7,70.6c0.8,3,3.1,4.5,6.7,4.5c2.4,0,4.1-0.8,5.4-2.4l5,2.9c-2.4,3.4-5.8,5.1-10.4,5.1c-4,0-7.1-1.2-9.5-3.6s-3.6-5.4-3.6-9.1
	c0-3.6,1.2-6.6,3.5-9c2.4-2.4,5.4-3.6,9.1-3.6c3.5,0,6.4,1.2,8.7,3.6s3.4,5.4,3.4,9c0,0.8-0.1,1.6-0.2,2.5L235.7,70.6L235.7,70.6
	L235.7,70.6z M216.2,55.4c2.6,0,4.8,0.9,6.5,2.6c1.7,1.8,2.6,4.2,2.6,7.3V80h-6.2V66.1c0-1.6-0.4-2.8-1.3-3.7
	c-0.9-0.8-2-1.3-3.4-1.3c-1.6,0-2.9,0.5-3.8,1.5c-1,1-1.4,2.5-1.4,4.5V80H203V56h6.2v2.7C210.6,56.5,212.9,55.4,216.2,55.4
	 M191.1,56.1h6.2v24h-6.2V56.1L191.1,56.1z M194.1,53.2c-1,0-1.9-0.4-2.7-1.1c-0.8-0.8-1.1-1.6-1.1-2.7c0-1,0.4-1.9,1.1-2.7
	c0.7-0.8,1.6-1.2,2.7-1.2c1.1,0,2,0.4,2.7,1.2s1.1,1.7,1.1,2.7s-0.4,1.9-1.1,2.7C196.1,52.8,195.2,53.2,194.1,53.2 M181.3,56.1h6.8
	l-9.1,24h-7l-9.1-24h6.8l5.8,16.8L181.3,56.1L181.3,56.1z M153.7,56.1h6.2v24h-6.2V56.1L153.7,56.1z M156.8,53.2
	c-1,0-1.9-0.4-2.7-1.1c-0.8-0.8-1.1-1.6-1.1-2.7c0-1,0.4-1.9,1.1-2.7c0.7-0.8,1.6-1.2,2.7-1.2c1.1,0,2,0.4,2.7,1.2s1.1,1.7,1.1,2.7
	s-0.4,1.9-1.1,2.7C158.7,52.8,157.8,53.2,156.8,53.2 M130.5,73c1.3,1.2,2.9,1.9,4.8,1.9c1.9,0,3.5-0.6,4.7-1.9s1.9-2.9,1.9-4.9
	s-0.6-3.6-1.9-4.9c-1.2-1.3-2.8-1.9-4.7-1.9s-3.5,0.6-4.8,1.9s-1.9,2.9-1.9,4.9S129.3,71.7,130.5,73 M141.9,46.5h6.2v33.6h-6.2v-2.8
	c-1.8,2.3-4.4,3.5-7.8,3.5c-3.2,0-6-1.2-8.3-3.7c-2.3-2.4-3.4-5.4-3.4-9s1.1-6.5,3.4-9c2.3-2.4,5-3.7,8.3-3.7c3.4,0,5.9,1.2,7.8,3.5
	V46.5L141.9,46.5z"/>
<path class="st1" d="M28.2,95.9c0.2,0.5,0.3,1.1,0.3,1.7c0,2.7-2.4,4.8-5.3,4.8s-5.3-2.2-5.3-4.8c0-0.4,0.1-0.8,0.2-1.2
	c0.3-0.9,0.8-1.7,1.6-2.3c0.7-0.6,1.6-1,2.6-1.2c0.3-0.1,0.6-0.1,1-0.1c0.2,0,0.3,0,0.5,0c1,0.1,2,0.4,2.8,1
	C27.2,94.3,27.8,95.1,28.2,95.9 M51.9,81.9c0,0.2,0.1,0.5,0.1,0.7c0,2.7-2.4,4.8-5.3,4.8c-2.9,0-5.3-2.2-5.3-4.8
	c0-0.2,0-0.5,0.1-0.7c0.3-1.9,1.8-3.4,3.8-3.9c0.5-0.1,0.9-0.2,1.4-0.2s1,0.1,1.4,0.2C50.1,78.5,51.6,80,51.9,81.9 M71.7,74.6
	c-2.9,0-5.3-2.2-5.3-4.8c0-2.7,2.4-4.8,5.3-4.8s5.3,2.2,5.3,4.8C77.1,72.5,74.7,74.6,71.7,74.6 M27.3,68.8c0.1,0.3,0.1,0.7,0.1,1
	c0,2.7-2.4,4.8-5.3,4.8s-5.3-2.2-5.3-4.8c0-0.3,0-0.7,0.1-1c0.4-1.8,2-3.3,4-3.7c0.4-0.1,0.8-0.1,1.2-0.1c0.4,0,0.8,0,1.2,0.1
	C25.3,65.5,26.9,67,27.3,68.8 M46.6,50.6c2.9,0,5.3,2.2,5.3,4.8c0,2.7-2.4,4.8-5.3,4.8c-2.9,0-5.3-2.2-5.3-4.8
	C41.3,52.7,43.7,50.6,46.6,50.6 M22.1,48.4c-2.9,0-5.3-2.2-5.3-4.8c0-2.7,2.4-4.8,5.3-4.8s5.3,2.2,5.3,4.8
	C27.4,46.3,25,48.4,22.1,48.4 M96.3,10.2l1.6,5c-0.1,0-0.4,0.1-0.8,0.3c-0.7,0.2-1.4,0.5-2.2,0.9c-2.3,1-4.6,2.2-6.7,3.6
	c-1.6,1-3,2.2-4.2,3.3c4.7,0.6,8.4,4.6,8.4,9.5c0,5.2-4.1,9.4-9.3,9.6c-5.3,0.2-9.9-4.3-9.9-9.6c0-1.8,0.5-3.5,1.4-4.9
	C68,28.3,63.2,31,59.7,35.4c-1.4,1.7-2.4,3.5-3.2,5.3c0,0-0.1,0.2-0.3,0.4c0,0,0,0,0.1,0c4.5,2.9,7.6,7.8,8.1,13.4
	c2.2-1,4.7-1.6,7.3-1.6c9.8,0,17.8,8,17.8,17.8c0,11.2-13.3,26.3-14.8,27.9c-0.8,0.8-1.9,1.3-3,1.3s-2.2-0.5-3-1.3
	C68,98,65.4,95,62.5,91c-3.8,9.2-11.7,18.2-12.9,19.5c-0.8,0.8-1.9,1.3-3,1.3s-2.2-0.5-3-1.3c-0.5-0.6-2.3-2.6-4.5-5.5
	c-3.4,9.7-12.3,19.8-13.5,21.2c-0.8,0.8-1.9,1.3-3,1.3s-2.2-0.5-3-1.3c-1.5-1.7-14.8-16.8-14.8-27.9c0-4.8,1.9-9.2,5.1-12.4
	c-3-4.9-5.4-10.4-5.4-15.1c0-4.8,1.9-9.1,5-12.3c-2.7-4.7-5-9.9-5-14.5c0-9.8,8-17.8,17.8-17.8c8.4,0,15.4,5.8,17.3,13.5
	c2.1-0.9,4.5-1.4,7-1.4c1.7,0,3.3,0.2,4.8,0.7c0.1-0.1,0.1-0.3,0.2-0.4c1-2.2,2.3-4.4,3.9-6.5c1.3-1.6,2.7-3,4.2-4.2
	c-1.6-0.1-3.2-0.2-4.8-0.6c-3.1-0.7-5.8-2-7.8-4s-3.3-4.7-4-7.8c-0.7-3-0.7-6.2-0.4-9.1C42.8,5.8,42.9,5.3,43,5l0.3-1.8l1.8-0.3
	c0.3-0.1,0.8-0.1,1.4-0.2c2.9-0.3,6.1-0.3,9.2,0.4c3.1,0.7,5.8,2,7.8,4s3.3,4.7,4,7.8c0.7,2.9,0.7,6,0.4,8.8
	c2.9-0.9,6.1-1.3,9.6-1.2c2-2.6,4.6-4.9,7.7-7c2.4-1.6,5-2.9,7.6-4C94.3,10.8,95.5,10.4,96.3,10.2 M22.3,31.5
	c-6.9,0-12.5,5.6-12.5,12.5c0,3.2,1.7,7.3,3.9,11.3c2.5-1.4,5.5-2.2,8.6-2.2c2.3,0,4.5,0.4,6.5,1.2c0.5-4.6,2.7-8.6,5.9-11.5
	C34.2,36.4,28.8,31.5,22.3,31.5 M9.8,70.8c0,3.4,1.8,7.7,4.3,11.8c2.5-1.4,5.4-2.2,8.5-2.2c2.2,0,4.3,0.4,6.2,1.1
	c0.2-4.3,2-8.3,4.8-11.2c0.4-0.4,0.7-0.7,1.1-1.1c-0.3-2.3-1.2-4.4-2.6-6.1c-0.8-1-1.7-1.9-2.8-2.6c-0.4-0.3-0.8-0.5-1.3-0.8
	c-1.7-0.9-3.7-1.4-5.8-1.4s-4,0.5-5.8,1.4c-1.6,0.8-3,2-4.1,3.4C10.8,65.3,9.8,67.9,9.8,70.8 M35.1,99.1c0-0.3,0-0.6,0-0.9
	c0-3.1-1.1-5.9-3-8.1c-0.6-0.7-1.2-1.3-2-1.8c-0.2-0.1-0.3-0.2-0.5-0.3c-0.6-0.4-1.2-0.7-1.8-1c-1.6-0.7-3.4-1.2-5.3-1.2
	c-2,0-3.9,0.5-5.6,1.4c-0.8,0.4-1.5,0.9-2.2,1.4c-0.7,0.6-1.3,1.2-1.9,1.9c-1.7,2.1-2.7,4.8-2.7,7.8c0,7,7.7,17.7,12.5,23.3
	C27.2,116.2,34.4,106.1,35.1,99.1 M58.8,85.3c0.2-1,0.3-1.9,0.3-2.8c0-1.1-0.2-2.1-0.4-3.1c-0.3-1-0.7-2-1.2-3
	c-0.3-0.5-0.6-1-0.9-1.4c-0.8-1-1.7-1.9-2.7-2.6c-0.4-0.3-0.9-0.6-1.3-0.9c-1.8-1-3.8-1.5-6-1.5s-4.2,0.5-6,1.5
	c-0.2,0.1-0.4,0.2-0.5,0.3c-1.2,0.7-2.2,1.6-3.1,2.7c-0.1,0.2-0.3,0.3-0.4,0.5c-1.4,1.9-2.3,4.2-2.5,6.7c0,0.3,0,0.5,0,0.8
	c0,0.8,0.1,1.6,0.3,2.4c0.2,0.2,0.5,0.4,0.7,0.6c3.2,3.1,5.2,7.4,5.4,12.1c2.1,3.1,4.4,6,6.2,8.2C50.8,100.9,57.2,92.1,58.8,85.3
	 M63.6,61.2c-2.5,2.1-4.2,5.2-4.5,8.7c0.1,0.1,0.3,0.3,0.4,0.4c3,3.2,4.9,7.5,4.9,12.2c0,0.6,0,1.1-0.1,1.7c2.4,3.8,5.1,7.4,7.3,9.9
	c4.8-5.6,12.5-16.3,12.5-23.3c0-6.9-5.6-12.5-12.5-12.5C68.6,58.3,65.8,59.4,63.6,61.2 M59.1,56c0-6.9-5.6-12.5-12.5-12.5
	S34.1,49.1,34.1,56c0,0.5,0,1,0.1,1.5c2.5,2.3,4.4,5.3,5.4,8.6c2.2-0.9,4.5-1.5,7.1-1.5c2.8,0,5.4,0.6,7.7,1.8
	c0.8-3.1,2.4-5.9,4.5-8.1C59,57.6,59.1,56.8,59.1,56 M62.7,22.5c0.2-2.2,0.1-4.4-0.4-6.5c-0.5-2.2-1.3-3.9-2.6-5.2
	c-1.2-1.2-3-2.1-5.2-2.6c-2.1-0.5-4.4-0.6-6.6-0.4c-0.2,2.2-0.1,4.4,0.4,6.5c0.5,2.2,1.3,3.9,2.6,5.2c1.2,1.2,3,2.1,5.2,2.6
	C58.2,22.6,60.5,22.7,62.7,22.5 M86.9,32.8c0-2.4-1.9-4.3-4.3-4.3s-4.3,1.9-4.3,4.3s1.9,4.3,4.3,4.3S86.9,35.2,86.9,32.8"/>
</svg>
