<svg width="82" height="82" viewBox="0 0 82 82" fill="none" xmlns="http://www.w3.org/2000/svg">
<rect width="82" height="82" rx="20" fill="#00303B" fill-opacity="0.1"/>
<path d="M41 48.5L42.5 45.5V37.787C45.0815 37.1165 47 34.787 47 32C47 28.691 44.309 26 41 26C37.691 26 35 28.691 35 32C35 34.787 36.9185 37.1165 39.5 37.787V45.5L41 48.5Z" fill="#00303B"/>
<path d="M47.4005 38.8445L46.601 41.7365C50.4875 42.8105 53 44.876 53 47C53 49.838 48.0725 53 41 53C33.9275 53 29 49.838 29 47C29 44.876 31.5125 42.8105 35.4005 41.735L34.601 38.843C29.2955 40.31 26 43.4345 26 47C26 52.046 32.5895 56 41 56C49.4105 56 56 52.046 56 47C56 43.4345 52.7045 40.31 47.4005 38.8445Z" fill="#00303B"/>
</svg>
