<svg width="116" height="20" viewBox="0 0 116 20" fill="none" xmlns="http://www.w3.org/2000/svg">
<path fill-rule="evenodd" clip-rule="evenodd" d="M17.476 1.6001H2.52398C2.01366 1.6001 1.59998 2.01379 1.59998 2.5241V17.4761C1.59998 17.7212 1.69733 17.9562 1.87061 18.1295C2.04389 18.3027 2.27892 18.4001 2.52398 18.4001H10.5712V11.8901H8.38718V9.3701H10.5712V7.4801C10.4796 6.5819 10.7897 5.68915 11.4183 5.04108C12.0469 4.39302 12.9298 4.05591 13.8304 4.1201C14.4842 4.11607 15.1377 4.14973 15.7876 4.2209V6.4889H14.452C13.3936 6.4889 13.192 6.9929 13.192 7.7237V9.3449H15.712L15.3844 11.8649H13.192V18.4001H17.476C17.721 18.4001 17.9561 18.3027 18.1293 18.1295C18.3026 17.9562 18.4 17.7212 18.4 17.4761V2.5241C18.4 2.27904 18.3026 2.04401 18.1293 1.87073C17.9561 1.69745 17.721 1.6001 17.476 1.6001Z" fill="#919EAB"/>
<path fill-rule="evenodd" clip-rule="evenodd" d="M50.4 4.76448C49.7686 5.03985 49.1009 5.22189 48.4176 5.30493C49.1384 4.872 49.6786 4.19092 49.938 3.38804C49.2606 3.79343 48.519 4.07905 47.7456 4.23248C46.6823 3.0733 44.9742 2.78279 43.5908 3.52584C42.2073 4.2689 41.4981 5.8578 41.8656 7.39071C39.0956 7.24986 36.5154 5.93299 34.7676 3.76804C34.4645 4.30018 34.3052 4.90282 34.3056 5.51604C34.3034 6.67268 34.8773 7.75364 35.8344 8.39559C35.2867 8.38061 34.7507 8.23287 34.272 7.96493V8.00715C34.2804 9.65211 35.4391 11.064 37.044 11.3849C36.7443 11.4766 36.4332 11.5249 36.12 11.5285C35.9032 11.5259 35.6869 11.5062 35.4732 11.4694C35.9276 12.8763 37.2192 13.8391 38.6904 13.8676C37.4784 14.8263 35.9821 15.3495 34.44 15.3538C34.1592 15.3547 33.8786 15.3378 33.6 15.3031C35.1745 16.3251 37.0094 16.8677 38.8836 16.8654C41.4962 16.8926 44.0101 15.8631 45.8599 14.0082C47.7098 12.1533 48.7404 9.62877 48.72 7.00226C48.72 6.85871 48.72 6.70671 48.72 6.55471C49.3791 6.06055 49.9476 5.45475 50.4 4.76448Z" fill="#919EAB"/>
<path fill-rule="evenodd" clip-rule="evenodd" d="M82.3961 8.22918C82.4338 7.1188 82.195 6.01673 81.7016 5.0253C81.3669 4.6185 80.9024 4.34397 80.389 4.24955C78.2655 4.05369 76.1333 3.97341 74.0014 4.00906C71.8773 3.97179 69.7527 4.04948 67.6367 4.24179C67.2183 4.31915 66.8312 4.51861 66.5225 4.81585C65.8356 5.45973 65.7593 6.5613 65.683 7.49221C65.5723 9.16595 65.5723 10.8454 65.683 12.5191C65.7051 13.0431 65.7818 13.5631 65.912 14.0706C66.004 14.4624 66.1902 14.8249 66.4538 15.1256C66.7646 15.4386 67.1608 15.6494 67.5909 15.7307C69.2362 15.9372 70.894 16.0227 72.5514 15.9867C75.2225 16.0255 77.5653 15.9867 80.3356 15.7695C80.7763 15.6932 81.1836 15.4821 81.5032 15.1644C81.7169 14.9472 81.8765 14.6812 81.9687 14.3887C82.2417 13.5374 82.3757 12.6464 82.3656 11.7511C82.3961 11.3167 82.3961 8.69463 82.3961 8.22918ZM72.2767 12.2166V7.41463L76.7946 9.82723C75.5277 10.5409 73.8564 11.3477 72.2767 12.2166Z" fill="#919EAB"/>
<path fill-rule="evenodd" clip-rule="evenodd" d="M110.486 4.5065C110.078 4.5065 109.71 4.75209 109.554 5.12875C109.398 5.50542 109.485 5.93897 109.773 6.22726C110.061 6.51555 110.495 6.60179 110.871 6.44577C111.248 6.28975 111.494 5.92219 111.494 5.5145C111.494 4.95779 111.042 4.5065 110.486 4.5065ZM114.35 6.5393C114.333 5.84235 114.203 5.1528 113.963 4.4981C113.75 3.93793 113.417 3.43069 112.989 3.0113C112.573 2.58074 112.064 2.25041 111.502 2.0453C110.849 1.79847 110.159 1.66495 109.461 1.6505C108.57 1.6001 108.285 1.6001 106 1.6001C103.715 1.6001 103.43 1.6001 102.539 1.6505C101.841 1.66495 101.151 1.79847 100.498 2.0453C99.9366 2.25248 99.4286 2.58253 99.0112 3.0113C98.5806 3.42725 98.2503 3.93567 98.0452 4.4981C97.7984 5.15107 97.6648 5.84139 97.6504 6.5393C97.6 7.4297 97.6 7.7153 97.6 10.0001C97.6 12.2849 97.6 12.5705 97.6504 13.4609C97.6648 14.1588 97.7984 14.8491 98.0452 15.5021C98.2503 16.0645 98.5806 16.5729 99.0112 16.9889C99.4286 17.4177 99.9366 17.7477 100.498 17.9549C101.151 18.2017 101.841 18.3352 102.539 18.3497C103.43 18.4001 103.715 18.4001 106 18.4001C108.285 18.4001 108.57 18.4001 109.461 18.3497C110.159 18.3352 110.849 18.2017 111.502 17.9549C112.064 17.7498 112.573 17.4195 112.989 16.9889C113.419 16.5711 113.752 16.0634 113.963 15.5021C114.203 14.8474 114.333 14.1578 114.35 13.4609C114.35 12.5705 114.4 12.2849 114.4 10.0001C114.4 7.7153 114.4 7.4297 114.35 6.5393ZM112.838 13.3601C112.831 13.8933 112.735 14.4216 112.552 14.9225C112.418 15.2881 112.202 15.6184 111.922 15.8885C111.65 16.1661 111.32 16.3811 110.956 16.5185C110.455 16.7014 109.927 16.798 109.394 16.8041C108.554 16.8461 108.243 16.8545 106.034 16.8545C103.824 16.8545 103.514 16.8545 102.674 16.8041C102.12 16.8145 101.569 16.7292 101.044 16.5521C100.696 16.4077 100.382 16.1932 100.12 15.9221C99.8412 15.6522 99.6284 15.3217 99.4984 14.9561C99.2933 14.448 99.1795 13.9077 99.1624 13.3601C99.1624 12.5201 99.112 12.2093 99.112 10.0001C99.112 7.7909 99.112 7.4801 99.1624 6.6401C99.1661 6.09498 99.2657 5.55477 99.4564 5.0441C99.6043 4.68954 99.8312 4.37349 100.12 4.1201C100.375 3.83128 100.691 3.6019 101.044 3.4481C101.556 3.26333 102.096 3.16676 102.64 3.1625C103.48 3.1625 103.791 3.1121 106 3.1121C108.209 3.1121 108.52 3.1121 109.36 3.1625C109.893 3.16861 110.421 3.26518 110.922 3.4481C111.304 3.58977 111.647 3.82009 111.922 4.1201C112.197 4.37813 112.412 4.69359 112.552 5.0441C112.739 5.5556 112.835 6.09559 112.838 6.6401C112.88 7.4801 112.888 7.7909 112.888 10.0001C112.888 12.2093 112.88 12.5201 112.838 13.3601ZM106 5.6909C103.621 5.69554 101.696 7.62688 101.699 10.0057C101.702 12.3845 103.632 14.3108 106.011 14.3093C108.39 14.3077 110.318 12.3789 110.318 10.0001C110.32 8.85508 109.865 7.75644 109.055 6.94758C108.245 6.13872 107.145 5.68642 106 5.6909ZM106 12.7973C104.455 12.7973 103.203 11.5449 103.203 10.0001C103.203 8.45525 104.455 7.2029 106 7.2029C107.545 7.2029 108.797 8.45525 108.797 10.0001C108.797 10.742 108.502 11.4534 107.978 11.978C107.453 12.5026 106.742 12.7973 106 12.7973Z" fill="#919EAB"/>
</svg>
