<svg width="144" height="32" viewBox="0 0 144 32" fill="none" xmlns="http://www.w3.org/2000/svg">
<circle cx="16" cy="16" r="16" fill="#55ACEE"/>
<path fill-rule="evenodd" clip-rule="evenodd" d="M23.329 9.88039C22.8774 10.1697 21.8405 10.59 21.3291 10.59V10.5909C20.7452 9.9809 19.9232 9.6001 19.0115 9.6001C17.2408 9.6001 15.805 11.0359 15.805 12.8059C15.805 13.0518 15.8335 13.2917 15.8862 13.5217H15.8857C13.4838 13.4587 10.8569 12.2548 9.27547 10.1944C8.30318 11.8773 9.14457 13.749 10.2479 14.431C9.87025 14.4595 9.17496 14.3875 8.8477 14.0682C8.82577 15.1852 9.36286 16.6652 11.3213 17.2021C10.9441 17.405 10.2764 17.3468 9.98613 17.3037C10.088 18.2466 11.4085 19.4793 12.8524 19.4793C12.3378 20.0746 10.4015 21.1543 8.22858 20.8108C9.70428 21.7087 11.4242 22.2287 13.2446 22.2287C18.4178 22.2287 22.4353 18.0361 22.219 12.8639C22.2182 12.8582 22.2182 12.8525 22.2177 12.8463C22.2182 12.833 22.219 12.8197 22.219 12.8059C22.219 12.7898 22.2177 12.7746 22.2171 12.7591C22.6881 12.437 23.32 11.8673 23.7714 11.1174C23.5096 11.2616 22.7242 11.5504 21.9933 11.6221C22.4624 11.3689 23.1573 10.5397 23.329 9.88039Z" fill="white"/>
<circle cx="72" cy="16" r="16" fill="#3B5998"/>
<path fill-rule="evenodd" clip-rule="evenodd" d="M69.8006 23.788H72.7148V15.7837H74.9009L75.3333 13.2826H72.7148V11.4702C72.7148 10.886 73.0926 10.2726 73.6325 10.2726H75.1206V7.77148H73.2968V7.7827C70.4431 7.88627 69.8568 9.539 69.806 11.275H69.8006V13.2826H68.3429V15.7837H69.8006V23.788Z" fill="white"/>
<circle cx="128" cy="16" r="16" fill="#0976B4"/>
<path fill-rule="evenodd" clip-rule="evenodd" d="M121.767 11.8705C122.868 11.8705 123.761 11.0561 123.761 10.0505C123.761 9.04394 122.868 8.22852 121.767 8.22852C120.664 8.22852 119.771 9.04394 119.771 10.0505C119.771 11.0561 120.664 11.8705 121.767 11.8705Z" fill="white"/>
<path fill-rule="evenodd" clip-rule="evenodd" d="M120.229 23.5783H123.807V13.2571H120.229V23.5783Z" fill="white"/>
<path fill-rule="evenodd" clip-rule="evenodd" d="M128.83 17.838C128.83 16.6543 129.39 15.4969 130.729 15.4969C132.068 15.4969 132.397 16.6543 132.397 17.8097V23.4466H135.96V17.5792C135.96 13.5028 133.55 12.8 132.068 12.8C130.587 12.8 129.77 13.301 128.83 14.5149V13.1254H125.257V23.4466H128.83V17.838Z" fill="white"/>
</svg>
